<svg version="1.1" id="Layer_1" xmlns="http://www.w3.org/2000/svg" xmlns:xlink="http://www.w3.org/1999/xlink" x="0px" y="0px"
	 width="100%" viewBox="0 0 512 512" enable-background="new 0 0 512 512" xml:space="preserve">
<path fill="#FEFEFE" opacity="1.000000" stroke="none" 
	d="
M1.000000,189.000000 
	C1.000000,126.000000 1.000000,63.500000 1.000000,1.000000 
	C171.666672,1.000000 342.333344,1.000000 513.000000,1.000000 
	C513.000000,171.666672 513.000000,342.333344 513.000000,513.000000 
	C342.333344,513.000000 171.666672,513.000000 1.000000,513.000000 
	C1.000000,405.166656 1.000000,297.333344 1.000000,189.000000 
M120.082817,389.256256 
	C119.701691,389.848175 119.320572,390.440094 118.385208,390.644165 
	C114.939941,384.734558 109.182594,384.033966 103.210045,384.069824 
	C92.725670,384.132782 82.242546,384.397278 71.758163,384.465576 
	C66.604324,384.499176 61.420120,383.890289 56.300438,384.265320 
	C47.179966,384.933411 43.190704,391.577362 46.425598,400.077667 
	C46.954899,401.468506 47.627434,402.819916 48.366650,404.113617 
	C64.851349,432.963806 81.473953,461.736298 97.754784,490.700958 
	C101.045532,496.555420 105.497345,499.091644 111.849144,498.985748 
	C117.336113,498.894287 122.820709,498.540466 128.306747,498.530701 
	C208.774628,498.387482 289.242615,498.215881 369.710388,498.279053 
	C377.167725,498.284912 381.585968,495.414307 385.211700,489.043060 
	C410.267151,445.015289 435.543365,401.112640 460.896759,357.255463 
	C464.355682,351.272034 464.546600,345.711456 461.039795,339.901031 
	C458.034180,334.920990 454.885559,330.022797 452.015594,324.966125 
	C438.564087,301.265350 425.103546,277.568848 411.838776,253.763519 
	C408.276398,247.370377 403.249756,244.381256 396.023407,244.705780 
	C391.541595,244.907059 387.050812,244.986145 382.564026,244.987427 
	C321.583374,245.004929 260.602570,244.949524 199.622314,245.106506 
	C195.378296,245.117416 192.598068,244.220688 192.062576,240.074890 
	C192.693253,239.802261 193.323914,239.529648 194.894455,239.177963 
	C262.619537,239.288803 330.344635,239.398758 398.069702,239.518005 
	C399.229523,239.520050 400.389191,239.634628 402.134918,239.954941 
	C402.438171,239.305618 402.741455,238.656296 403.042511,237.512955 
	C403.042511,237.512955 403.241058,237.060593 403.768127,236.997086 
	C403.878571,236.336243 403.989044,235.675400 404.138763,234.253830 
	C408.440918,223.213989 405.273193,218.520065 393.535034,218.494995 
	C339.238098,218.379013 284.941193,218.255112 230.644257,218.134125 
	C224.980453,218.121506 219.313309,217.990280 213.654327,218.149384 
	C210.952042,218.225327 209.187271,217.562469 207.502121,215.181732 
	C202.121750,207.580475 196.512543,200.128464 190.674240,192.874329 
	C189.456146,191.360840 186.878418,190.941589 184.589661,189.326508 
	C195.812958,169.527969 207.094345,149.761917 218.196793,129.895828 
	C219.857040,126.925056 221.739807,125.911949 225.156921,125.917801 
	C290.800781,126.030060 356.444916,126.001152 422.088989,125.998940 
	C423.754761,125.998878 425.433258,126.098785 427.084076,125.934013 
	C434.574799,125.186394 438.613098,119.279831 436.402618,112.121773 
	C435.675781,109.768112 434.555023,107.493622 433.334076,105.342010 
	C425.953583,92.336060 418.341278,79.459160 411.126465,66.362846 
	C407.943054,60.584339 403.505768,58.049545 397.006134,58.115223 
	C382.194885,58.264881 367.381012,58.185974 352.568268,58.158226 
	C299.430542,58.058685 246.291931,58.069668 193.156052,57.697708 
	C184.903336,57.639942 180.011719,60.790619 176.054504,67.822983 
	C151.449829,111.548012 126.664116,155.172546 101.646019,198.662186 
	C97.492477,205.882385 97.557465,211.959778 101.713814,219.069626 
	C117.890457,246.741364 133.845734,274.545593 149.558304,302.483337 
	C153.340668,309.208588 158.053345,312.144836 165.902588,312.125397 
	C231.710419,311.962250 297.519043,312.141846 363.327271,312.082153 
	C366.617249,312.079163 368.349670,313.063080 369.896942,315.906769 
	C375.216888,325.684387 380.710388,335.373016 386.389862,344.945984 
	C387.892517,347.478760 387.667969,349.203979 386.265717,351.648407 
	C371.876007,376.732697 357.556488,401.858276 343.431305,427.092041 
	C341.694031,430.195526 339.798828,431.073700 336.428650,431.068451 
	C275.283173,430.973511 214.134750,430.709991 152.994858,431.301544 
	C143.493683,431.393463 138.124985,428.704407 135.100677,420.233002 
	C134.989273,419.920959 134.918930,419.594208 135.118408,418.626495 
	C135.436844,417.994904 135.755264,417.363312 136.828171,416.964539 
	C138.143387,416.091400 140.041840,415.515991 140.667358,414.290741 
	C142.767975,410.176147 144.214966,405.728760 146.301178,401.605621 
	C147.851837,398.540955 147.335022,396.408844 144.852676,394.214600 
	C139.381317,389.378174 134.118576,384.304413 128.611633,379.510223 
	C126.837158,377.965424 124.565178,376.992126 122.520798,375.757355 
	C121.245613,378.003998 119.417168,380.126648 118.876930,382.537964 
	C118.472313,384.343903 119.726807,386.521576 120.082817,389.256256 
M351.103058,401.616791 
	C353.866119,393.620148 353.278625,392.765320 344.914948,392.837860 
	C301.146484,393.217438 257.377747,393.574158 213.609848,394.012604 
	C195.641586,394.192566 177.673630,394.493378 159.710144,394.929474 
	C157.743759,394.977234 154.736526,395.734680 154.032623,397.100922 
	C149.599670,405.705078 145.681595,414.574463 141.519516,423.514923 
	C155.944000,423.514923 169.583679,423.538574 183.223236,423.510742 
	C233.835205,423.407379 284.447144,423.286957 335.059082,423.173157 
	C335.725159,423.171661 336.493835,423.387299 337.036346,423.128235 
	C338.246552,422.550385 339.798737,422.006409 340.412506,420.973724 
	C344.054169,414.846252 347.467743,408.583191 351.103058,401.616791 
M198.072098,27.598553 
	C194.246872,33.261013 190.421646,38.923477 186.204483,45.166130 
	C189.072327,45.166130 190.900284,45.166130 192.728241,45.166130 
	C257.711914,45.166130 322.695618,45.173363 387.679291,45.150890 
	C392.325500,45.149281 397.971313,46.495445 401.324951,44.353622 
	C404.421234,42.376183 405.102295,36.566742 406.771332,32.414600 
	C411.052307,21.764828 407.534607,16.510792 396.152435,16.509722 
	C361.327850,16.506449 326.503235,16.508530 291.678650,16.508533 
	C265.351929,16.508537 239.024918,16.571964 212.698761,16.450602 
	C207.910507,16.428528 204.332687,17.900581 201.910812,22.105791 
	C200.918640,23.828573 199.662766,25.399475 198.072098,27.598553 
M464.306854,324.791748 
	C468.452667,320.217102 468.488678,315.791931 464.991547,310.515259 
	C460.603180,303.893860 457.033081,296.729218 453.125305,289.790344 
	C441.968353,269.979523 430.833374,250.156296 419.655762,230.357132 
	C417.275421,226.140793 414.442963,225.378815 411.310120,227.935806 
	C408.389343,230.319733 406.749603,239.638000 408.689178,242.987442 
	C425.006439,271.165436 441.327698,299.341095 457.662445,327.508972 
	C458.369019,328.727386 459.218994,329.862640 460.165039,331.280731 
	C461.626099,329.040710 462.799103,327.242279 464.306854,324.791748 
M424.003571,80.530853 
	C428.298828,87.819099 432.617554,95.093651 436.877899,102.402229 
	C438.618195,105.387680 440.463501,106.002365 443.124420,103.329788 
	C446.054443,100.386971 449.210388,97.668945 452.270935,94.856285 
	C454.339417,92.955399 455.147552,90.903923 453.373627,88.300636 
	C442.902466,72.934067 432.517914,57.508087 421.970642,42.194111 
	C419.749512,38.969131 417.983154,39.330627 416.395020,43.042439 
	C414.833435,46.692234 413.135284,50.337589 412.134552,54.152149 
	C411.576782,56.278275 411.614685,59.114845 412.601257,60.991322 
	C415.993408,67.443169 419.922272,73.612854 424.003571,80.530853 
M56.932629,382.995514 
	C72.885818,382.997284 88.839012,383.001343 104.792198,382.999634 
	C110.796738,382.998993 114.091850,379.871918 114.850899,372.867340 
	C96.912605,372.867340 79.037277,372.756561 61.165543,372.960297 
	C57.567612,373.001312 54.407372,379.752808 56.932629,382.995514 
z"/>
<path fill="#241916" opacity="1.000000" stroke="none" 
	d="
M191.345840,240.051468 
	C192.598068,244.220688 195.378296,245.117416 199.622314,245.106506 
	C260.602570,244.949524 321.583374,245.004929 382.564026,244.987427 
	C387.050812,244.986145 391.541595,244.907059 396.023407,244.705780 
	C403.249756,244.381256 408.276398,247.370377 411.838776,253.763519 
	C425.103546,277.568848 438.564087,301.265350 452.015594,324.966125 
	C454.885559,330.022797 458.034180,334.920990 461.039795,339.901031 
	C464.546600,345.711456 464.355682,351.272034 460.896759,357.255463 
	C435.543365,401.112640 410.267151,445.015289 385.211700,489.043060 
	C381.585968,495.414307 377.167725,498.284912 369.710388,498.279053 
	C289.242615,498.215881 208.774628,498.387482 128.306747,498.530701 
	C122.820709,498.540466 117.336113,498.894287 111.849144,498.985748 
	C105.497345,499.091644 101.045532,496.555420 97.754784,490.700958 
	C81.473953,461.736298 64.851349,432.963806 48.366650,404.113617 
	C47.627434,402.819916 46.954899,401.468506 46.425598,400.077667 
	C43.190704,391.577362 47.179966,384.933411 56.300438,384.265320 
	C61.420120,383.890289 66.604324,384.499176 71.758163,384.465576 
	C82.242546,384.397278 92.725670,384.132782 103.210045,384.069824 
	C109.182594,384.033966 114.939941,384.734558 118.720276,391.186584 
	C124.313385,400.910767 129.571426,410.092529 134.829468,419.274323 
	C134.918930,419.594208 134.989273,419.920959 135.100677,420.233002 
	C138.124985,428.704407 143.493683,431.393463 152.994858,431.301544 
	C214.134750,430.709991 275.283173,430.973511 336.428650,431.068451 
	C339.798828,431.073700 341.694031,430.195526 343.431305,427.092041 
	C357.556488,401.858276 371.876007,376.732697 386.265717,351.648407 
	C387.667969,349.203979 387.892517,347.478760 386.389862,344.945984 
	C380.710388,335.373016 375.216888,325.684387 369.896942,315.906769 
	C368.349670,313.063080 366.617249,312.079163 363.327271,312.082153 
	C297.519043,312.141846 231.710419,311.962250 165.902588,312.125397 
	C158.053345,312.144836 153.340668,309.208588 149.558304,302.483337 
	C133.845734,274.545593 117.890457,246.741364 101.713814,219.069626 
	C97.557465,211.959778 97.492477,205.882385 101.646019,198.662186 
	C126.664116,155.172546 151.449829,111.548012 176.054504,67.822983 
	C180.011719,60.790619 184.903336,57.639942 193.156052,57.697708 
	C246.291931,58.069668 299.430542,58.058685 352.568268,58.158226 
	C367.381012,58.185974 382.194885,58.264881 397.006134,58.115223 
	C403.505768,58.049545 407.943054,60.584339 411.126465,66.362846 
	C418.341278,79.459160 425.953583,92.336060 433.334076,105.342010 
	C434.555023,107.493622 435.675781,109.768112 436.402618,112.121773 
	C438.613098,119.279831 434.574799,125.186394 427.084076,125.934013 
	C425.433258,126.098785 423.754761,125.998878 422.088989,125.998940 
	C356.444916,126.001152 290.800781,126.030060 225.156921,125.917801 
	C221.739807,125.911949 219.857040,126.925056 218.196793,129.895828 
	C207.094345,149.761917 195.812958,169.527969 184.790909,189.623016 
	C184.992157,189.919525 185.108658,189.947083 184.685486,189.959656 
	C184.161972,190.516617 184.061646,191.061035 184.008255,191.930023 
	C183.033295,193.689438 181.846390,195.036484 181.025803,196.578461 
	C179.569077,199.315796 178.334518,202.171356 176.616821,204.916000 
	C174.000900,206.447510 172.914352,208.235687 174.538574,211.006607 
	C180.195053,220.656540 185.751404,230.365158 191.345840,240.051468 
M256.500000,105.002815 
	C306.859955,105.002815 357.219910,105.002815 408.744934,105.002815 
	C404.140015,97.041168 399.912933,90.477592 396.488098,83.519180 
	C394.575226,79.632668 392.075165,78.937820 388.221222,78.943207 
	C325.388153,79.030991 262.554932,79.000740 199.721741,78.997482 
	C198.721756,78.997429 197.606567,78.718842 196.747879,79.068352 
	C195.343246,79.640068 193.580017,80.309357 192.882736,81.481575 
	C188.380569,89.050407 184.144485,96.777069 179.787445,104.432800 
	C169.511887,122.488014 159.214218,140.530655 148.931656,158.581894 
	C140.048447,174.176559 131.077866,189.723358 122.432228,205.448730 
	C121.487953,207.166245 121.731262,210.266190 122.637917,212.136261 
	C125.460762,217.958679 128.833862,223.517273 132.054016,229.143570 
	C142.948685,248.178909 153.937073,267.161133 164.720016,286.259430 
	C166.744797,289.845642 169.067902,291.146667 173.334717,291.135651 
	C239.334137,290.965088 305.334320,291.082123 371.333710,290.902435 
	C377.137421,290.886627 381.126678,293.210663 383.717743,297.705048 
	C392.102051,312.248352 400.164642,326.977509 408.311371,341.657196 
	C410.849487,346.230682 410.831635,350.875092 408.260406,355.452454 
	C403.213470,364.437012 398.169769,373.423553 393.076141,382.381653 
	C381.411346,402.896362 369.585754,423.321320 358.121735,443.947418 
	C355.005035,449.555023 350.981293,452.070831 344.575165,452.061310 
	C275.575470,451.958771 206.575485,451.956177 137.575806,452.069611 
	C131.530441,452.079559 127.617561,449.772552 124.734261,444.547607 
	C118.070396,432.471802 111.167961,420.526215 104.222374,408.609314 
	C103.384460,407.171692 101.718208,405.273651 100.377342,405.225739 
	C91.789917,404.918701 83.186127,405.069092 73.948929,405.069092 
	C74.665405,406.811890 74.979614,407.889771 75.518288,408.840485 
	C87.806313,430.527405 100.173126,452.170044 112.364388,473.911102 
	C114.062233,476.938934 116.059395,478.107117 119.498993,478.049530 
	C144.957794,477.623291 170.418625,477.141541 195.879852,477.075348 
	C251.546036,476.930634 307.212891,476.991333 362.879242,477.086609 
	C366.483551,477.092773 368.437866,476.029785 370.256744,472.754425 
	C379.533539,456.048767 389.159851,439.537231 398.658722,422.954834 
	C411.460175,400.607056 423.892548,378.034760 437.281250,356.044617 
	C441.214783,349.584015 439.508362,345.292969 436.401794,339.919189 
	C423.261230,317.188477 410.182312,294.419525 397.401703,271.485748 
	C395.139252,267.426056 392.786438,265.868744 388.115021,265.880096 
	C323.282196,266.037628 258.447845,265.816437 193.616928,266.202728 
	C184.699875,266.255859 179.706146,262.583466 175.760620,255.519897 
	C168.872406,243.188034 162.219650,230.694717 154.677444,218.769211 
	C150.063507,211.473770 150.819641,205.414871 154.932465,198.434723 
	C163.452988,183.974091 171.458496,169.210663 179.734207,154.604843 
	C187.761459,140.437531 195.801483,126.276665 203.964874,112.187698 
	C206.616272,107.611702 210.514069,104.895897 216.164688,104.949921 
	C229.275436,105.075264 242.388107,104.997971 256.500000,105.002815 
z"/>
<path fill="#030303" opacity="1.000000" stroke="none" 
	d="
M351.030518,401.991272 
	C347.467743,408.583191 344.054169,414.846252 340.412506,420.973724 
	C339.798737,422.006409 338.246552,422.550385 337.036346,423.128235 
	C336.493835,423.387299 335.725159,423.171661 335.059082,423.173157 
	C284.447144,423.286957 233.835205,423.407379 183.223236,423.510742 
	C169.583679,423.538574 155.944000,423.514923 141.519516,423.514923 
	C145.681595,414.574463 149.599670,405.705078 154.032623,397.100922 
	C154.736526,395.734680 157.743759,394.977234 159.710144,394.929474 
	C177.673630,394.493378 195.641586,394.192566 213.609848,394.012604 
	C257.377747,393.574158 301.146484,393.217438 344.914948,392.837860 
	C353.278625,392.765320 353.866119,393.620148 351.030518,401.991272 
z"/>
<path fill="#000000" opacity="1.000000" stroke="none" 
	d="
M198.299469,27.319008 
	C199.662766,25.399475 200.918640,23.828573 201.910812,22.105791 
	C204.332687,17.900581 207.910507,16.428528 212.698761,16.450602 
	C239.024918,16.571964 265.351929,16.508537 291.678650,16.508533 
	C326.503235,16.508530 361.327850,16.506449 396.152435,16.509722 
	C407.534607,16.510792 411.052307,21.764828 406.771332,32.414600 
	C405.102295,36.566742 404.421234,42.376183 401.324951,44.353622 
	C397.971313,46.495445 392.325500,45.149281 387.679291,45.150890 
	C322.695618,45.173363 257.711914,45.166130 192.728241,45.166130 
	C190.900284,45.166130 189.072327,45.166130 186.204483,45.166130 
	C190.421646,38.923477 194.246872,33.261013 198.299469,27.319008 
z"/>
<path fill="#020202" opacity="1.000000" stroke="none" 
	d="
M177.007019,204.977463 
	C178.334518,202.171356 179.569077,199.315796 181.025803,196.578461 
	C181.846390,195.036484 183.033295,193.689438 184.292511,191.727615 
	C184.722794,190.782791 184.915726,190.364929 185.108658,189.947083 
	C185.108658,189.947083 184.992157,189.919525 184.959717,189.968811 
	C186.878418,190.941589 189.456146,191.360840 190.674240,192.874329 
	C196.512543,200.128464 202.121750,207.580475 207.502121,215.181732 
	C209.187271,217.562469 210.952042,218.225327 213.654327,218.149384 
	C219.313309,217.990280 224.980453,218.121506 230.644257,218.134125 
	C284.941193,218.255112 339.238098,218.379013 393.535034,218.494995 
	C405.273193,218.520065 408.440918,223.213989 403.940002,234.860687 
	C403.574493,235.998550 403.407776,236.529572 403.241028,237.060593 
	C403.241058,237.060593 403.042511,237.512955 402.834534,237.952179 
	C402.267334,238.826508 401.908142,239.261597 401.548920,239.696686 
	C400.389191,239.634628 399.229523,239.520050 398.069702,239.518005 
	C330.344635,239.398758 262.619537,239.288803 194.195923,238.905380 
	C193.384262,236.876495 193.831772,234.814468 193.067627,233.413177 
	C187.856567,223.856918 182.390686,214.439606 177.007019,204.977463 
z"/>
<path fill="#040404" opacity="1.000000" stroke="none" 
	d="
M464.139496,325.117798 
	C462.799103,327.242279 461.626099,329.040710 460.165039,331.280731 
	C459.218994,329.862640 458.369019,328.727386 457.662445,327.508972 
	C441.327698,299.341095 425.006439,271.165436 408.689178,242.987442 
	C406.749603,239.638000 408.389343,230.319733 411.310120,227.935806 
	C414.442963,225.378815 417.275421,226.140793 419.655762,230.357132 
	C430.833374,250.156296 441.968353,269.979523 453.125305,289.790344 
	C457.033081,296.729218 460.603180,303.893860 464.991547,310.515259 
	C468.488678,315.791931 468.452667,320.217102 464.139496,325.117798 
z"/>
<path fill="#030303" opacity="1.000000" stroke="none" 
	d="
M423.825073,80.210457 
	C419.922272,73.612854 415.993408,67.443169 412.601257,60.991322 
	C411.614685,59.114845 411.576782,56.278275 412.134552,54.152149 
	C413.135284,50.337589 414.833435,46.692234 416.395020,43.042439 
	C417.983154,39.330627 419.749512,38.969131 421.970642,42.194111 
	C432.517914,57.508087 442.902466,72.934067 453.373627,88.300636 
	C455.147552,90.903923 454.339417,92.955399 452.270935,94.856285 
	C449.210388,97.668945 446.054443,100.386971 443.124420,103.329788 
	C440.463501,106.002365 438.618195,105.387680 436.877899,102.402229 
	C432.617554,95.093651 428.298828,87.819099 423.825073,80.210457 
z"/>
<path fill="#040404" opacity="1.000000" stroke="none" 
	d="
M120.242584,388.533722 
	C119.726807,386.521576 118.472313,384.343903 118.876930,382.537964 
	C119.417168,380.126648 121.245613,378.003998 122.520798,375.757355 
	C124.565178,376.992126 126.837158,377.965424 128.611633,379.510223 
	C134.118576,384.304413 139.381317,389.378174 144.852676,394.214600 
	C147.335022,396.408844 147.851837,398.540955 146.301178,401.605621 
	C144.214966,405.728760 142.767975,410.176147 140.667358,414.290741 
	C140.041840,415.515991 138.143387,416.091400 136.308990,416.541260 
	C130.607422,406.923218 125.425003,397.728455 120.242584,388.533722 
z"/>
<path fill="#010101" opacity="1.000000" stroke="none" 
	d="
M56.483116,382.955566 
	C54.407372,379.752808 57.567612,373.001312 61.165543,372.960297 
	C79.037277,372.756561 96.912605,372.867340 114.850899,372.867340 
	C114.091850,379.871918 110.796738,382.998993 104.792198,382.999634 
	C88.839012,383.001343 72.885818,382.997284 56.483116,382.955566 
z"/>
<path fill="#CBCBCB" opacity="1.000000" stroke="none" 
	d="
M176.616821,204.916000 
	C182.390686,214.439606 187.856567,223.856918 193.067627,233.413177 
	C193.831772,234.814468 193.384262,236.876495 193.725983,238.944916 
	C193.323914,239.529648 192.693253,239.802261 191.704208,240.063171 
	C185.751404,230.365158 180.195053,220.656540 174.538574,211.006607 
	C172.914352,208.235687 174.000900,206.447510 176.616821,204.916000 
z"/>
<path fill="#DFDEDE" opacity="1.000000" stroke="none" 
	d="
M120.162704,388.894989 
	C125.425003,397.728455 130.607422,406.923218 135.931763,416.424835 
	C135.755264,417.363312 135.436844,417.994904 134.973938,418.950409 
	C129.571426,410.092529 124.313385,400.910767 118.997391,391.380493 
	C119.320572,390.440094 119.701691,389.848175 120.162704,388.894989 
z"/>
<path fill="#CBCBCB" opacity="1.000000" stroke="none" 
	d="
M403.504578,237.028839 
	C403.407776,236.529572 403.574493,235.998550 403.920349,235.241043 
	C403.989044,235.675400 403.878571,236.336243 403.504578,237.028839 
z"/>
<path fill="#CBCBCB" opacity="1.000000" stroke="none" 
	d="
M401.841919,239.825806 
	C401.908142,239.261597 402.267334,238.826508 402.835632,238.199188 
	C402.741455,238.656296 402.438171,239.305618 401.841919,239.825806 
z"/>
<path fill="#000000" opacity="1.000000" stroke="none" 
	d="
M256.000000,105.002823 
	C242.388107,104.997971 229.275436,105.075264 216.164688,104.949921 
	C210.514069,104.895897 206.616272,107.611702 203.964874,112.187698 
	C195.801483,126.276665 187.761459,140.437531 179.734207,154.604843 
	C171.458496,169.210663 163.452988,183.974091 154.932465,198.434723 
	C150.819641,205.414871 150.063507,211.473770 154.677444,218.769211 
	C162.219650,230.694717 168.872406,243.188034 175.760620,255.519897 
	C179.706146,262.583466 184.699875,266.255859 193.616928,266.202728 
	C258.447845,265.816437 323.282196,266.037628 388.115021,265.880096 
	C392.786438,265.868744 395.139252,267.426056 397.401703,271.485748 
	C410.182312,294.419525 423.261230,317.188477 436.401794,339.919189 
	C439.508362,345.292969 441.214783,349.584015 437.281250,356.044617 
	C423.892548,378.034760 411.460175,400.607056 398.658722,422.954834 
	C389.159851,439.537231 379.533539,456.048767 370.256744,472.754425 
	C368.437866,476.029785 366.483551,477.092773 362.879242,477.086609 
	C307.212891,476.991333 251.546036,476.930634 195.879852,477.075348 
	C170.418625,477.141541 144.957794,477.623291 119.498993,478.049530 
	C116.059395,478.107117 114.062233,476.938934 112.364388,473.911102 
	C100.173126,452.170044 87.806313,430.527405 75.518288,408.840485 
	C74.979614,407.889771 74.665405,406.811890 73.948929,405.069092 
	C83.186127,405.069092 91.789917,404.918701 100.377342,405.225739 
	C101.718208,405.273651 103.384460,407.171692 104.222374,408.609314 
	C111.167961,420.526215 118.070396,432.471802 124.734261,444.547607 
	C127.617561,449.772552 131.530441,452.079559 137.575806,452.069611 
	C206.575485,451.956177 275.575470,451.958771 344.575165,452.061310 
	C350.981293,452.070831 355.005035,449.555023 358.121735,443.947418 
	C369.585754,423.321320 381.411346,402.896362 393.076141,382.381653 
	C398.169769,373.423553 403.213470,364.437012 408.260406,355.452454 
	C410.831635,350.875092 410.849487,346.230682 408.311371,341.657196 
	C400.164642,326.977509 392.102051,312.248352 383.717743,297.705048 
	C381.126678,293.210663 377.137421,290.886627 371.333710,290.902435 
	C305.334320,291.082123 239.334137,290.965088 173.334717,291.135651 
	C169.067902,291.146667 166.744797,289.845642 164.720016,286.259430 
	C153.937073,267.161133 142.948685,248.178909 132.054016,229.143570 
	C128.833862,223.517273 125.460762,217.958679 122.637917,212.136261 
	C121.731262,210.266190 121.487953,207.166245 122.432228,205.448730 
	C131.077866,189.723358 140.048447,174.176559 148.931656,158.581894 
	C159.214218,140.530655 169.511887,122.488014 179.787445,104.432800 
	C184.144485,96.777069 188.380569,89.050407 192.882736,81.481575 
	C193.580017,80.309357 195.343246,79.640068 196.747879,79.068352 
	C197.606567,78.718842 198.721756,78.997429 199.721741,78.997482 
	C262.554932,79.000740 325.388153,79.030991 388.221222,78.943207 
	C392.075165,78.937820 394.575226,79.632668 396.488098,83.519180 
	C399.912933,90.477592 404.140015,97.041168 408.744934,105.002815 
	C357.219910,105.002815 306.859955,105.002815 256.000000,105.002823 
z"/>
<path fill="#FEFEFE" opacity="1.000000" stroke="none" 
	d="
M184.685486,189.959656 
	C184.915726,190.364929 184.722794,190.782791 184.245575,191.403046 
	C184.061646,191.061035 184.161972,190.516617 184.685486,189.959656 
z"/>
</svg>