<svg xmlns="http://www.w3.org/2000/svg" viewBox="0 0 512 512"><path fill="#FEFEFE" d="M513 186v326.96H1.102V1.165H513V186M120.312 390.19c-.117.312-.234.624-1.004.637-2.962-4.814-7.283-6.888-12.91-6.857-15.995.09-31.991.132-47.984-.03-4.775-.048-9 .525-11.78 4.896-3.227 5.076-1.905 10.207.683 14.796 9.88 17.519 20.054 34.872 30.123 52.285 7.33 12.676 14.718 25.319 21.969 38.04 2.1 3.684 5.183 5.05 9.205 5.05 87.304-.01 174.609.007 261.913-.047 5.236-.003 10.32-1.491 13.095-6.258 9.629-16.54 18.953-33.257 28.4-49.903 7.148-12.599 14.245-25.227 21.475-37.779 9.626-16.713 19.414-33.333 29.007-50.066 2.43-4.237 2.37-8.766-.106-13.059-6.029-10.453-12.165-20.843-18.185-31.3-6.66-11.568-13.38-23.105-19.79-34.81-3.164-5.778-5.69-11.906-7.801-17.697l43.133 73.86c2.285-3.573 4.954-6.86 6.567-10.601.95-2.203 1.2-5.67.105-7.648-15.502-27.982-31.255-55.826-47.103-83.615-.885-1.55-3.434-3.51-4.674-3.192-2.032.52-4.542 2.426-5.225 4.33-1.885 5.258-3.733 10.826 1.045 15.876.915.968 1.095 2.63.986 4.536-2.709-3.847-6.1-6.687-11.05-6.742-6.148-.07-12.299.102-18.449.103-60.87.01-121.741-.044-182.611.118-4.143.01-6.376-1.06-6.684-5.105 0 0 .332-.006 1.27-.006h208.295c1.278-3.631 2.42-6.563 3.344-9.562 1.955-6.346-1.512-11.366-8.142-11.905-.994-.08-1.999-.034-2.998-.036-53.978-.125-107.956-.25-161.934-.373-6.498-.015-12.999.069-19.493-.113-1.404-.04-3.303-.623-4.085-1.64-4.642-6.029-8.667-12.567-13.63-18.302-2.773-3.205-3.792-9.28-10.054-8.817 1.748-3.061 3.492-6.124 5.243-9.184 9.437-16.49 19.083-32.865 28.153-49.554 2.016-3.708 4.07-4.592 7.88-4.586 66.498.095 132.996.094 199.494-.026 2.58-.005 5.58-.81 7.648-2.278 4.288-3.046 4.66-11.046 1.274-16.936-7.944-13.823-15.88-27.65-23.92-41.416-2.69-4.605-6.265-7.394-12.247-7.375-54.498.174-108.996.105-163.495.098-4.34 0-8.68-.059-13.019-.099-7.305-.067-14.684.497-21.899-.348-14.288-1.672-19.697.526-25.435 11.514-6.181 11.838-12.888 23.406-19.513 35.008-9.734 17.05-19.603 34.023-29.407 51.033-7.876 13.665-15.676 27.373-23.635 40.988-4.434 7.583-6.4 15.03-1.366 23.26 8.15 13.327 16.11 26.773 23.928 40.298 8.778 15.186 17.32 30.508 25.936 45.788 2.214 3.926 5 6.585 9.974 6.605 67.084.266 134.168.677 201.252.828 4.437.01 6.647 1.552 8.566 5.212 4.707 8.974 9.438 17.965 14.802 26.548 1.771 2.834 1.584 4.729.236 7.085-3.674 6.422-7.506 12.755-11.132 19.204-10.57 18.797-21.039 37.652-31.639 56.433-1.336 2.37-3.077 3.8-6.504 3.782-38.665-.212-77.33-.135-115.996-.135-24.666 0-49.332.042-73.998-.08-1.924-.01-4.649-.59-5.604-1.914-2.416-3.346-4.034-7.267-5.422-11.246.227-.339.454-.677 1.44-.794 1.08-.435 2.77-.577 3.143-1.353 2.508-5.206 4.89-10.489 6.935-15.89.449-1.183-.133-3.454-1.073-4.355-6.585-6.312-13.357-12.432-20.143-18.531-1.99-1.79-3.578-1.609-5.104 1.031-2.312 4.001-2.529 7.687-.276 12.32M405.32 35.813c.764-1.837 1.569-3.658 2.286-5.514 3.014-7.8-.857-13.618-9.224-13.773-4.995-.093-9.994-.018-14.991-.018-56.635 0-113.27-.048-169.905.128-3.2.01-7.634.869-9.369 3.035-6.565 8.193-12.254 17.089-18.6 26.195h215.95c1.229-3.191 2.41-6.255 3.853-10.053M238.5 424h100.613c1.295-2.502 2.24-4.418 3.265-6.29 2.862-5.228 6.285-10.225 8.506-15.71 2.742-6.773 3.593-9.38-6.072-9.25-44.095.59-88.194.826-132.291 1.268-17.633.176-35.266.47-52.893.95-2.057.057-5.148 1.093-5.929 2.615-4.35 8.472-8.135 17.234-12.353 26.417H238.5m201.903-318.957c3.494-3.008 6.857-6.19 10.52-8.978 3.825-2.913 4.107-5.621 1.307-9.625-9.895-14.148-19.505-28.496-29.171-42.804-1.094-1.62-1.857-3.463-2.773-5.202l-2.356 1.363c-1.896 4.515-3.705 9.07-5.72 13.532-1.336 2.96-1.201 5.415.573 8.338 7.917 13.046 15.524 26.28 23.334 39.392.886 1.487 2.35 2.63 4.286 3.984M112.098 372.838c-16.12 0-32.242-.012-48.363.007-5.011.006-8.579 3.997-8.593 9.751.742.13 1.522.384 2.301.386 16.454.023 32.907.04 49.36.001 3.263-.007 8.389-5.327 8.141-8.502-.046-.591-1.267-1.091-2.846-1.643z"/><path fill="#231815" d="M415.917 257.91c2.815 5.97 5.342 12.097 8.507 17.875 6.41 11.705 13.13 23.242 19.789 34.81 6.02 10.457 12.156 20.847 18.185 31.3 2.475 4.293 2.536 8.822.106 13.06-9.593 16.732-19.38 33.352-29.007 50.065-7.23 12.552-14.327 25.18-21.476 37.779-9.446 16.646-18.77 33.363-28.4 49.903-2.774 4.767-7.858 6.255-13.094 6.258-87.304.054-174.609.036-261.913.046-4.022 0-7.106-1.365-9.205-5.049-7.25-12.721-14.64-25.364-21.969-38.04-10.069-17.413-20.242-34.766-30.123-52.285-2.588-4.589-3.91-9.72-.683-14.796 2.78-4.371 7.005-4.944 11.78-4.896 15.993.162 31.99.12 47.983.03 5.628-.031 9.95 2.043 13.239 7.372 5.286 9.246 10.245 17.977 15.204 26.708 1.938 3.69 3.556 7.611 5.972 10.957.955 1.324 3.68 1.904 5.604 1.913 24.666.123 49.332.081 73.998.081 38.665 0 77.331-.077 115.996.135 3.427.019 5.168-1.413 6.504-3.782 10.6-18.78 21.068-37.636 31.639-56.433 3.626-6.45 7.458-12.782 11.132-19.204 1.348-2.356 1.535-4.25-.236-7.085-5.364-8.583-10.095-17.574-14.802-26.548-1.919-3.66-4.13-5.202-8.566-5.212-67.084-.15-134.168-.562-201.252-.828-4.974-.02-7.76-2.68-9.974-6.605-8.616-15.28-17.158-30.602-25.936-45.788-7.817-13.525-15.778-26.971-23.928-40.297-5.034-8.23-3.068-15.678 1.366-23.261 7.96-13.615 15.759-27.323 23.635-40.988 9.804-17.01 19.673-33.983 29.407-51.033 6.625-11.602 13.332-23.17 19.513-35.008 5.738-10.988 11.147-13.186 25.435-11.514 7.215.845 14.594.281 21.9.348 4.339.04 8.679.099 13.018.099 54.499.007 108.997.076 163.495-.098 5.982-.019 9.557 2.77 12.247 7.375 8.04 13.766 15.976 27.593 23.92 41.416 3.385 5.89 3.014 13.89-1.274 16.936-2.067 1.469-5.068 2.273-7.648 2.278-66.498.12-132.996.121-199.494.026-3.81-.006-5.864.878-7.88 4.586-9.07 16.689-18.716 33.065-28.153 49.554-1.75 3.06-3.495 6.123-5.597 9.73-2.048 3.116-3.903 5.598-5.39 8.283-1.363 2.463-2.328 5.145-3.8 7.89-.254 1.802-.633 3.646-.013 5.048 1.61 3.635 3.543 7.142 5.555 10.58 3.619 6.18 7.39 12.273 11.096 18.402.64 4.05 2.874 5.12 7.017 5.11 60.87-.162 121.74-.108 182.611-.118 6.15 0 12.3-.172 18.449-.103 4.95.055 8.341 2.895 11.313 6.433.264-.308.306-.415-.016-.116 1.246 2.456 2.814 4.612 4.325 6.789-.057.02-.111-.088-.111-.088m-8.399-154.766c-3.696-6.692-7.467-13.345-11.057-20.094-1.695-3.187-4.043-4.132-7.644-4.123-45.33.123-90.66.076-135.99.073-17.665 0-35.33.083-52.995-.065-3.832-.033-6.847.37-8.215 4.587-.55 1.696-1.82 3.152-2.726 4.739-11.697 20.494-23.407 40.981-35.075 61.492-10.435 18.346-20.78 36.742-31.27 55.056-1.811 3.161-1.42 5.633.383 8.738 13.852 23.854 27.606 47.765 41.116 71.813 2.324 4.135 4.81 5.78 9.666 5.768 65.661-.171 131.323-.049 196.984-.224 6.11-.017 10.161 2.13 13.046 7.243 8.085 14.327 16.207 28.633 24.318 42.945 2.883 5.088 2.723 10.135-.16 15.161-4.628 8.072-9.272 16.136-13.872 24.224-11.913 20.944-23.962 41.813-35.607 62.905-3.289 5.957-7.506 8.69-14.291 8.68-68.828-.101-137.656-.124-206.484.051-5.806.015-9.72-2.369-12.381-6.82-5.97-9.982-12.031-19.963-17.109-30.404-3.608-7.42-7.917-11.339-16.645-10.035-5.581.834-11.388.156-17.698.156.904 2.09 1.264 3.19 1.825 4.177 11.995 21.087 24.074 42.128 35.965 63.273 1.93 3.433 3.666 5.667 8.258 5.64 81.287-.478 162.576-.761 243.864-1.087.333-.001.737.122.989-.022 1.584-.907 3.77-1.493 4.597-2.878 7.49-12.555 14.78-25.23 22.055-37.914 15.788-27.53 31.505-55.101 47.336-82.606 1.713-2.976 2.209-5.45.353-8.686-13.888-24.219-27.768-48.446-41.236-72.899-2.696-4.895-5.805-6.143-11.045-6.13-64.661.17-129.324-.004-193.984.286-7.54.034-12.398-2.672-15.878-8.803-8.04-14.164-15.962-28.395-24.052-42.53-2.313-4.04-2.243-7.731.04-11.75 7.882-13.874 15.606-27.836 23.423-41.746 8.783-15.63 17.735-31.168 26.344-46.894 3.905-7.135 9.435-9.626 17.51-9.594 60.66.246 121.323.155 181.985.107 1.831-.002 3.663-.687 5.357-1.81z"/><path d="M405.188 36.18c-1.312 3.43-2.492 6.494-3.721 9.685h-215.95c6.346-9.106 12.035-18.002 18.6-26.195 1.735-2.166 6.17-3.025 9.37-3.035 56.634-.176 113.269-.128 169.904-.128 4.997 0 9.996-.075 14.991.018 8.367.155 12.238 5.974 9.224 13.773-.717 1.856-1.522 3.677-2.418 5.881z"/><path fill="#010101" d="M238 424h-96.654c4.218-9.183 8.003-17.945 12.353-26.417.781-1.522 3.872-2.558 5.93-2.614 17.626-.48 35.259-.775 52.892-.951 44.097-.442 88.196-.677 132.291-1.269 9.665-.13 8.814 2.478 6.072 9.252-2.221 5.484-5.644 10.48-8.506 15.709-1.025 1.872-1.97 3.788-3.265 6.29H238zm-61.978-218.186c1.14-2.586 2.106-5.268 3.47-7.73 1.486-2.686 3.34-5.168 5.316-7.936 6.689-1.357 7.708 4.718 10.481 7.923 4.963 5.735 8.988 12.273 13.63 18.302.782 1.017 2.681 1.6 4.085 1.64 6.494.182 12.995.098 19.493.113l161.934.373c1 .002 2.004-.045 2.998.036 6.63.539 10.097 5.56 8.142 11.905-.924 3-2.066 5.93-3.344 9.562-69.113 0-138.704 0-208.805-.4 1.038-2.202 1.035-3.822-.402-5.888-2.481-3.567-4.583-7.397-6.839-11.12-3.388-5.592-6.773-11.187-10.16-16.78z"/><path fill="#020202" d="M412.033 251.043c-.468-1.315-.648-2.977-1.563-3.945-4.778-5.05-2.93-10.618-1.045-15.876.683-1.904 3.193-3.81 5.225-4.33 1.24-.318 3.79 1.641 4.674 3.192 15.848 27.789 31.6 55.633 47.103 83.615 1.096 1.978.844 5.445-.105 7.648-1.613 3.741-4.282 7.028-6.567 10.6-14.479-24.793-28.806-49.326-43.486-73.948-.352-.09-.298.018-.275-.365-1.307-2.497-2.638-4.61-3.969-6.724 0 0-.042.107.008.133z"/><path fill="#030303" d="M440.033 105.018c-1.566-1.329-3.03-2.472-3.916-3.96-7.81-13.111-15.417-26.345-23.334-39.391-1.774-2.923-1.91-5.377-.573-8.338 2.015-4.461 3.824-9.017 5.72-13.532l2.356-1.363c.916 1.74 1.679 3.583 2.773 5.202 9.666 14.308 19.276 28.656 29.17 42.804 2.8 4.004 2.519 6.712-1.307 9.625-3.662 2.789-7.025 5.97-10.89 8.953z"/><path fill="#040404" d="M120.813 389.325c-2.754-3.769-2.537-7.455-.225-11.456 1.526-2.64 3.113-2.82 5.104-1.031 6.786 6.099 13.558 12.219 20.143 18.53.94.902 1.522 3.173 1.073 4.357-2.045 5.4-4.427 10.683-6.935 15.889-.374.776-2.063.918-3.665.935-5.512-9.353-10.503-18.289-15.495-27.224z"/><path fill="#010101" d="M112.548 372.843c1.129.547 2.35 1.047 2.396 1.638.248 3.175-4.878 8.495-8.14 8.502-16.454.039-32.907.022-49.36-.001-.78-.002-1.56-.256-2.302-.386.014-5.754 3.582-9.745 8.593-9.751 16.12-.02 32.242-.007 48.813-.002z"/><path fill="#FDFDFD" d="M175.69 205.973c3.718 5.434 7.103 11.029 10.491 16.62 2.256 3.724 4.358 7.554 6.84 11.12 1.436 2.067 1.439 3.687-.068 5.89.04.4-.291.405-.457.403-3.874-6.132-7.644-12.224-11.263-18.406-2.012-3.437-3.946-6.944-5.555-10.58-.62-1.401-.241-3.245.013-5.047z"/><path fill="#E3E3E3" d="M120.563 389.757c5.242 8.503 10.233 17.439 15.367 26.682-.086.645-.313.983-.815 1.466-5.234-8.586-10.193-17.317-15.153-26.413.116-.678.233-.99.6-1.735z"/><path d="M407.587 103.523c-1.763.744-3.595 1.43-5.426 1.43-60.662.049-121.325.14-181.986-.106-8.074-.032-13.604 2.46-17.51 9.594-8.608 15.726-17.56 31.263-26.343 46.894-7.817 13.91-15.54 27.872-23.423 41.745-2.283 4.02-2.353 7.71-.04 11.751 8.09 14.135 16.013 28.366 24.052 42.53 3.48 6.131 8.338 8.837 15.878 8.803 64.66-.29 129.323-.115 193.984-.285 5.24-.014 8.349 1.234 11.045 6.13 13.468 24.452 27.348 48.679 41.236 72.898 1.856 3.236 1.36 5.71-.353 8.686-15.831 27.505-31.548 55.076-47.336 82.606-7.274 12.683-14.565 25.359-22.055 37.914-.827 1.385-3.013 1.971-4.597 2.878-.252.144-.656.02-.989.022-81.288.326-162.577.61-243.864 1.087-4.592.027-6.328-2.207-8.258-5.64-11.891-21.145-23.97-42.186-35.965-63.273-.561-.987-.92-2.088-1.825-4.177 6.31 0 12.117.678 17.698-.156 8.728-1.304 13.037 2.615 16.645 10.035 5.078 10.441 11.14 20.422 17.109 30.404 2.661 4.451 6.575 6.835 12.38 6.82 68.829-.175 137.657-.152 206.485-.051 6.785.01 11.002-2.723 14.291-8.68 11.645-21.092 23.694-41.96 35.607-62.905 4.6-8.088 9.244-16.152 13.873-24.224 2.882-5.026 3.042-10.073.16-15.16-8.112-14.313-16.234-28.619-24.319-42.946-2.885-5.113-6.936-7.26-13.046-7.243-65.661.175-131.323.053-196.984.224-4.857.013-7.342-1.633-9.666-5.768-13.51-24.048-27.264-47.96-41.116-71.813-1.803-3.105-2.194-5.577-.384-8.738 10.491-18.314 20.836-36.71 31.271-55.056 11.668-20.51 23.378-40.998 35.075-61.492.905-1.587 2.176-3.043 2.726-4.739 1.368-4.216 4.383-4.62 8.215-4.587 17.664.148 35.33.064 52.996.065 45.33.003 90.66.05 135.99-.073 3.6-.01 5.948.936 7.643 4.123 3.59 6.75 7.36 13.402 11.126 20.473z"/><path fill="#FEFEFE" d="M411.703 251.21c1.653 1.814 2.984 3.927 4.348 6.404-1.534-1.793-3.102-3.95-4.348-6.405z"/></svg>