<svg xmlns="http://www.w3.org/2000/svg" viewBox="0 0 512 512"><path fill="#FEFEFE" d="M1 189V1h512v512H1V189m119.083 200.256c-.381.592-.762 1.184-1.698 1.388-3.445-5.91-9.202-6.61-15.175-6.574-10.484.063-20.967.327-31.452.396-5.154.033-10.338-.576-15.458-.2-9.12.667-13.11 7.311-9.874 15.812.529 1.39 1.201 2.742 1.94 4.036 16.485 28.85 33.108 57.622 49.389 86.587 3.29 5.854 7.742 8.39 14.094 8.285 5.487-.092 10.972-.446 16.458-.455 80.468-.144 160.936-.315 241.403-.252 7.458.006 11.876-2.865 15.502-9.236 25.055-44.028 50.331-87.93 75.685-131.788 3.459-5.983 3.65-11.544.143-17.354-3.006-4.98-6.154-9.878-9.024-14.935-13.452-23.7-26.912-47.397-40.177-71.202-3.563-6.394-8.59-9.383-15.816-9.058-4.481.201-8.972.28-13.459.281-60.98.018-121.961-.037-182.942.12-4.244.01-7.024-.886-7.56-5.032.631-.273 1.262-.545 2.832-.897 67.726.11 135.45.22 203.176.34 1.16.002 2.32.117 4.065.437.303-.65.606-1.299.908-2.442 0 0 .198-.452.725-.516.11-.66.221-1.322.37-2.743 4.303-11.04 1.135-15.734-10.603-15.759-54.297-.116-108.594-.24-162.89-.36-5.665-.013-11.332-.145-16.99.014-2.703.076-4.468-.587-6.153-2.967a453.04 453.04 0 00-16.828-22.308c-1.218-1.513-3.796-1.932-6.084-3.547 11.223-19.799 22.504-39.565 33.607-59.431 1.66-2.97 3.543-3.984 6.96-3.978 65.644.112 131.288.083 196.932.08 1.666 0 3.344.1 4.995-.064 7.49-.748 11.53-6.654 9.319-13.812-.727-2.354-1.848-4.628-3.069-6.78-7.38-13.006-14.993-25.883-22.208-38.98-3.183-5.778-7.62-8.312-14.12-8.247-14.811.15-29.625.071-44.438.043-53.137-.1-106.276-.088-159.412-.46-8.253-.058-13.144 3.093-17.101 10.125-24.605 43.725-49.39 87.35-74.409 130.84-4.154 7.22-4.089 13.297.068 20.407a5762.463 5762.463 0 0147.844 83.413c3.783 6.726 8.495 9.662 16.345 9.642 65.807-.163 131.616.017 197.424-.043 3.29-.003 5.023.981 6.57 3.825a898.725 898.725 0 0016.493 29.039c1.503 2.533 1.278 4.258-.124 6.702-14.39 25.085-28.71 50.21-42.835 75.444-1.737 3.104-3.632 3.982-7.002 3.976-61.146-.094-122.294-.358-183.434.234-9.501.091-14.87-2.598-17.894-11.069-.112-.312-.182-.639.017-1.607.319-.631.637-1.263 1.71-1.661 1.315-.874 3.214-1.449 3.84-2.674 2.1-4.115 3.547-8.562 5.633-12.685 1.55-3.065 1.034-5.197-1.448-7.391-5.472-4.837-10.734-9.91-16.241-14.705-1.775-1.545-4.047-2.518-6.091-3.753-1.275 2.247-3.104 4.37-3.644 6.781-.405 1.806.85 3.984 1.206 6.718m231.02 12.36c2.763-7.996 2.176-8.85-6.188-8.778-43.769.38-87.537.736-131.305 1.175-17.968.18-35.936.48-53.9.916-1.966.048-4.973.806-5.677 2.172-4.433 8.604-8.351 17.473-12.513 26.414 14.424 0 28.064.024 41.703-.004 50.612-.104 101.224-.224 151.836-.338.666-.001 1.435.214 1.977-.045 1.21-.578 2.763-1.122 3.377-2.154 3.641-6.128 7.055-12.39 10.69-19.357M198.073 27.599l-11.869 17.567h6.524c64.984 0 129.968.007 194.951-.015 4.647-.002 10.292 1.344 13.646-.797 3.096-1.978 3.777-7.787 5.446-11.94 4.281-10.65.764-15.903-10.619-15.904-34.824-.004-69.649-.001-104.473-.001-26.327 0-52.654.063-78.98-.058-4.788-.022-8.366 1.45-10.788 5.655-.992 1.723-2.248 3.293-3.839 5.493m266.235 297.193c4.146-4.575 4.182-9 .685-14.277-4.389-6.621-7.959-13.786-11.867-20.725-11.157-19.81-22.292-39.634-33.47-59.433-2.38-4.216-5.212-4.978-8.345-2.421-2.92 2.384-4.56 11.702-2.62 15.051a157448.98 157448.98 0 0048.972 84.522c.707 1.218 1.557 2.354 2.503 3.772 1.461-2.24 2.634-4.039 4.142-6.49m-40.303-244.26c4.295 7.288 8.614 14.563 12.874 21.871 1.74 2.986 3.586 3.6 6.246.928 2.93-2.943 6.086-5.661 9.147-8.474 2.068-1.9 2.877-3.952 1.103-6.555-10.472-15.367-20.856-30.793-31.403-46.107-2.221-3.225-3.988-2.863-5.576.848-1.562 3.65-3.26 7.296-4.26 11.11-.558 2.126-.52 4.963.466 6.84 3.392 6.451 7.321 12.62 11.403 19.539M56.933 382.996c15.953.001 31.906.005 47.86.004 6.004-.001 9.299-3.128 10.058-10.133-17.938 0-35.814-.11-53.685.093-3.598.041-6.759 6.793-4.233 10.036z"/><path fill="#241916" d="M191.346 240.051c1.252 4.17 4.032 5.066 8.276 5.056 60.98-.157 121.961-.102 182.942-.12 4.487 0 8.978-.08 13.46-.281 7.226-.325 12.252 2.664 15.815 9.058 13.265 23.805 26.725 47.501 40.177 71.202 2.87 5.057 6.018 9.955 9.024 14.935 3.507 5.81 3.316 11.371-.143 17.354-25.354 43.858-50.63 87.76-75.685 131.788-3.626 6.371-8.044 9.242-15.502 9.236-80.467-.063-160.935.108-241.403.252-5.486.01-10.97.363-16.458.455-6.352.106-10.803-2.43-14.094-8.285-16.281-28.965-32.904-57.737-49.388-86.587-.74-1.294-1.412-2.645-1.941-4.036-3.235-8.5.754-15.145 9.874-15.813 5.12-.375 10.304.234 15.458.2 10.485-.068 20.968-.332 31.452-.395 5.973-.036 11.73.665 15.51 7.117 5.593 9.724 10.851 18.906 16.11 28.087.089.32.16.647.27.959 3.025 8.471 8.394 11.16 17.895 11.069 61.14-.592 122.288-.328 183.434-.234 3.37.006 5.265-.872 7.002-3.976 14.125-25.234 28.445-50.36 42.835-75.444 1.402-2.444 1.627-4.17.124-6.702a898.725 898.725 0 01-16.493-29.04c-1.547-2.843-3.28-3.827-6.57-3.824-65.808.06-131.617-.12-197.424.043-7.85.02-12.562-2.916-16.345-9.642a5762.463 5762.463 0 00-47.844-83.413c-4.157-7.11-4.222-13.188-.068-20.408 25.018-43.49 49.804-87.114 74.409-130.839 3.957-7.032 8.848-10.183 17.101-10.125 53.136.372 106.275.36 159.412.46 14.813.028 29.627.107 44.438-.043 6.5-.065 10.937 2.47 14.12 8.248 7.215 13.096 14.828 25.973 22.208 38.979 1.221 2.152 2.342 4.426 3.069 6.78 2.21 7.158-1.828 13.064-9.319 13.812-1.65.165-3.33.065-4.995.065-65.644.002-131.288.031-196.932-.081-3.417-.006-5.3 1.007-6.96 3.978-11.103 19.866-22.384 39.632-33.406 59.727.201.297.318.324-.106.337-.523.557-.623 1.101-.677 1.97-.975 1.76-2.162 3.106-2.982 4.648-1.457 2.738-2.691 5.593-4.41 8.338-2.615 1.532-3.702 3.32-2.077 6.09 5.656 9.65 11.212 19.36 16.807 29.045M256.5 105.003h152.245c-4.605-7.962-8.832-14.525-12.257-21.484-1.913-3.886-4.413-4.581-8.267-4.576-62.833.088-125.666.058-188.5.054-1 0-2.114-.278-2.973.071-1.405.572-3.168 1.241-3.865 2.414-4.502 7.568-8.739 15.295-13.096 22.95-10.275 18.056-20.573 36.099-30.855 54.15-8.884 15.595-17.854 31.141-26.5 46.867-.944 1.717-.7 4.817.206 6.687 2.823 5.823 6.196 11.381 9.416 17.008 10.895 19.035 21.883 38.017 32.666 57.115 2.025 3.587 4.348 4.888 8.615 4.877 66-.17 132-.054 197.999-.234 5.803-.015 9.793 2.309 12.384 6.803 8.384 14.543 16.447 29.273 24.593 43.952 2.538 4.574 2.52 9.218-.05 13.795-5.048 8.985-10.091 17.972-15.185 26.93-11.665 20.514-23.49 40.94-34.954 61.565-3.117 5.608-7.14 8.124-13.547 8.114-69-.102-138-.105-207 .009-6.045.01-9.957-2.297-12.84-7.522-6.665-12.076-13.567-24.022-20.513-35.939-.838-1.437-2.504-3.335-3.845-3.383-8.587-.307-17.19-.157-26.428-.157.716 1.743 1.03 2.82 1.57 3.771 12.287 21.687 24.654 43.33 36.845 65.071 1.698 3.028 3.695 4.196 7.135 4.139 25.459-.427 50.92-.908 76.38-.975 55.667-.144 111.334-.084 167 .012 3.605.006 5.559-1.057 7.378-4.333 9.277-16.705 18.903-33.217 28.402-49.8 12.801-22.347 25.234-44.92 38.622-66.91 3.934-6.46 2.227-10.751-.88-16.125-13.14-22.73-26.219-45.5-39-68.433-2.262-4.06-4.615-5.617-9.286-5.606-64.833.158-129.667-.064-194.498.323-8.917.053-13.91-3.62-17.856-10.683-6.889-12.332-13.541-24.825-21.084-36.75-4.613-7.296-3.857-13.355.255-20.335 8.521-14.46 16.526-29.224 24.802-43.83 8.027-14.167 16.067-28.328 24.23-42.417 2.652-4.576 6.55-7.292 12.2-7.238 13.111.125 26.224.048 40.336.053z"/><path fill="#030303" d="M351.03 401.991c-3.562 6.592-6.976 12.855-10.617 18.983-.614 1.032-2.166 1.576-3.377 2.154-.542.26-1.31.044-1.977.045-50.612.114-101.224.234-151.836.338-13.64.028-27.279.004-41.703.004 4.162-8.94 8.08-17.81 12.513-26.414.704-1.366 3.71-2.124 5.677-2.172 17.964-.436 35.932-.736 53.9-.916 43.768-.439 87.536-.796 131.305-1.175 8.364-.073 8.951.782 6.116 9.153z"/><path d="M198.3 27.319c1.363-1.92 2.619-3.49 3.61-5.213 2.423-4.205 6-5.677 10.789-5.655 26.326.121 52.653.058 78.98.058 34.824 0 69.649-.003 104.473 0 11.383.002 14.9 5.256 10.62 15.906-1.67 4.152-2.35 9.961-5.447 11.939-3.354 2.141-9 .795-13.646.797-64.983.022-129.967.015-194.95.015h-6.525A4775.988 4775.988 0 01198.3 27.32z"/><path fill="#020202" d="M177.007 204.977c1.328-2.806 2.562-5.661 4.019-8.399.82-1.542 2.007-2.889 3.267-4.85.43-.945.623-1.363.816-1.78 0 0-.117-.028-.15.02 1.92.974 4.497 1.393 5.715 2.906a453.04 453.04 0 0116.828 22.308c1.685 2.38 3.45 3.043 6.152 2.967 5.66-.159 11.326-.027 16.99-.015 54.297.121 108.594.245 162.891.361 11.738.025 14.906 4.719 10.405 16.366-.366 1.138-.532 1.669-.699 2.2 0 0-.198.452-.406.891-.568.875-.927 1.31-1.286 1.745-1.16-.062-2.32-.177-3.48-.179-67.724-.12-135.45-.23-203.873-.613-.812-2.029-.364-4.09-1.128-5.492-5.211-9.556-10.677-18.973-16.061-28.436z"/><path fill="#040404" d="M464.14 325.118a462.02 462.02 0 01-3.975 6.163c-.946-1.418-1.796-2.554-2.503-3.772a157448.98 157448.98 0 01-48.973-84.522c-1.94-3.349-.3-12.667 2.621-15.051 3.133-2.557 5.965-1.795 8.346 2.421 11.177 19.8 22.312 39.623 33.47 59.433 3.907 6.94 7.477 14.104 11.866 20.725 3.497 5.277 3.46 9.702-.853 14.603z"/><path fill="#030303" d="M423.825 80.21c-3.903-6.597-7.832-12.767-11.224-19.219-.986-1.876-1.024-4.713-.466-6.839 1-3.814 2.698-7.46 4.26-11.11 1.588-3.711 3.355-4.073 5.576-.848 10.547 15.314 20.931 30.74 31.403 46.107 1.774 2.603.965 4.654-1.103 6.555-3.06 2.813-6.217 5.531-9.147 8.474-2.66 2.672-4.506 2.058-6.246-.928-4.26-7.308-8.58-14.583-13.053-22.192z"/><path fill="#040404" d="M120.243 388.534c-.516-2.012-1.77-4.19-1.366-5.996.54-2.411 2.369-4.534 3.644-6.78 2.044 1.234 4.316 2.207 6.09 3.752 5.508 4.794 10.77 9.868 16.242 14.705 2.482 2.194 2.999 4.326 1.448 7.39-2.086 4.124-3.533 8.571-5.634 12.686-.625 1.225-2.524 1.8-4.358 2.25-5.702-9.618-10.884-18.813-16.066-28.007z"/><path fill="#010101" d="M56.483 382.956c-2.076-3.203 1.085-9.955 4.683-9.996 17.871-.203 35.747-.093 53.685-.093-.76 7.005-4.054 10.132-10.059 10.133-15.953.001-31.906-.003-48.309-.044z"/><path fill="#CBCBCB" d="M176.617 204.916c5.774 9.524 11.24 18.94 16.45 28.497.765 1.401.317 3.463.659 5.532-.402.585-1.033.857-2.022 1.118-5.953-9.698-11.509-19.406-17.165-29.056-1.625-2.771-.538-4.56 2.078-6.091z"/><path fill="#DFDEDE" d="M120.163 388.895c5.262 8.833 10.444 18.028 15.769 27.53-.177.938-.495 1.57-.958 2.525-5.403-8.857-10.66-18.04-15.977-27.57.324-.94.705-1.532 1.166-2.485z"/><path fill="#CBCBCB" d="M403.505 237.029c-.097-.5.07-1.03.415-1.788.069.434-.041 1.095-.415 1.788zm-1.663 2.797c.066-.564.425-1 .994-1.627-.095.457-.398 1.107-.994 1.627z"/><path d="M256 105.003c-13.612-.005-26.725.072-39.835-.053-5.65-.054-9.549 2.662-12.2 7.238-8.164 14.089-16.204 28.25-24.23 42.417-8.277 14.606-16.282 29.37-24.803 43.83-4.112 6.98-4.868 13.039-.255 20.334 7.543 11.926 14.195 24.419 21.084 36.75 3.945 7.064 8.939 10.737 17.856 10.684 64.83-.387 129.665-.165 194.498-.323 4.671-.011 7.024 1.546 9.287 5.606 12.78 22.934 25.86 45.702 39 68.433 3.106 5.374 4.813 9.665.88 16.126-13.39 21.99-25.822 44.562-38.623 66.91-9.5 16.582-19.125 33.094-28.402 49.8-1.82 3.275-3.773 4.338-7.378 4.332-55.666-.096-111.333-.156-167-.012-25.46.067-50.921.548-76.38.975-3.44.057-5.437-1.111-7.135-4.139-12.19-21.741-24.558-43.384-36.846-65.07-.538-.951-.853-2.03-1.57-3.772 9.238 0 17.842-.15 26.43.157 1.34.048 3.006 1.946 3.844 3.383 6.946 11.917 13.848 23.863 20.512 35.939 2.884 5.225 6.796 7.532 12.842 7.522 69-.114 138-.111 207-.009 6.405.01 10.429-2.506 13.546-8.114 11.464-20.626 23.29-41.05 34.954-61.565 5.094-8.958 10.137-17.945 15.184-26.93 2.572-4.577 2.59-9.221.051-13.795-8.146-14.68-16.209-29.409-24.593-43.952-2.591-4.494-6.58-6.818-12.384-6.803-66 .18-132 .063-198 .234-4.266.01-6.59-1.29-8.614-4.877-10.783-19.098-21.771-38.08-32.666-57.115-3.22-5.627-6.593-11.185-9.416-17.008-.907-1.87-1.15-4.97-.206-6.687 8.646-15.726 17.616-31.272 26.5-46.867 10.282-18.051 20.58-36.094 30.855-54.15 4.357-7.655 8.594-15.382 13.096-22.95.697-1.173 2.46-1.842 3.865-2.414.859-.35 1.974-.07 2.974-.07 62.833.003 125.666.033 188.5-.055 3.853-.005 6.353.69 8.266 4.576 3.425 6.959 7.652 13.522 12.257 21.484H256z"/><path fill="#FEFEFE" d="M184.685 189.96c.23.405.038.823-.44 1.443-.183-.342-.083-.886.44-1.443z"/></svg>